<?xml version="1.0" encoding="utf-8"?>
<!-- Generator: Adobe Illustrator 22.1.0, SVG Export Plug-In . SVG Version: 6.00 Build 0)  -->
<svg version="1.1" id="Warstwa_1" xmlns="http://www.w3.org/2000/svg" xmlns:xlink="http://www.w3.org/1999/xlink" x="0px" y="0px"
	 viewBox="0 0 100 63.3" style="enable-background:new 0 0 100 63.3;" xml:space="preserve">
<style type="text/css">
	.st0{fill:#FF0000;}
</style>
<title>Artboard 13</title>
<path class="st0" d="M71.5,9.8h-43c-6.1,0-11,4.9-11,11v23c0,6.1,4.9,11,11,11h43c6.1,0,11-4.9,11-11v-23
	C82.5,14.7,77.6,9.8,71.5,9.8z M62.7,32.7l-19.5,10c-0.2,0.1-0.5,0-0.7-0.2c0-0.1-0.1-0.1-0.1-0.2v-20c0-0.3,0.2-0.5,0.5-0.5
	c0.1,0,0.2,0,0.2,0.1l19.5,10c0.2,0.1,0.3,0.4,0.2,0.7C62.9,32.6,62.8,32.7,62.7,32.7L62.7,32.7z"/>
</svg>
